#!OML:ASF E:\basketball\basketball\Project 1\Capture day 1\Session 1\Subject.ASF
:FULLY-SPECIFIED
:DEGREES
51
root -27.9749 12.7344 11.8929 190.287 54.5231 183.973
lowerback 29.8379 0.812817 11.551
upperback 11.8221 6.35865 3.15182
thorax -2.10536 4.20969 -4.99034
lowerneck -12.9004 0.337609 -5.76706
upperneck -17.3326 2.91351 0.455039
head -3.5945 2.59386 1.11075
rclavicle 2.06736e-014 1.36764e-013
rhumerus 25.0311 -5.48916 -85.9535
rradius 23.3601
rwrist 45.3404
rhand -34.5577 7.73917
rfingers 7.12502
rthumb -7.71787 -22.1
lclavicle 2.06736e-014 1.36764e-013
lhumerus -53.1847 -0.365578 72.8475
lradius 24.0522
lwrist -22.257
lhand 37.9928 200.969
lfingers 7.12502
lthumb 60.7115 -172.042
rfemur -20.0672 -27.3709 -8.65674
rtibia 63.4466
rfoot -22.1034 -15.4506
rtoes -51.6434
lfemur -66.55 32.323 -23.4904
ltibia 108.012
lfoot -5.38305 24.0555
ltoes 49.8799
52
root -27.8087 12.748 11.7166 191.301 53.6372 185.142
lowerback 29.7859 1.25392 11.4296
upperback 11.9939 6.94286 3.4372
thorax -1.85388 4.52607 -4.74802
lowerneck -13.2205 -0.18313 -6.28831
upperneck -17.0929 2.3515 0.967115
head -3.45178 2.33584 1.37495
rclavicle -2.70347e-014 1.27222e-014
rhumerus 27.9107 -17.3785 -91.8074
rradius 19.0458
rwrist 45.5318
rhand -35.8749 11.962
rfingers 7.12502
rthumb -8.9891 -17.8265
lclavicle -2.70347e-014 1.27222e-014
lhumerus -55.0233 -4.37372 75.9069
lradius 25.0241
lwrist -18.5664
lhand 44.1036 200.851
lfingers 7.12502
lthumb 65.6968 -165.121
rfemur -17.3615 -26.9934 -8.48292
rtibia 61.322
rfoot -22.6944 -14.8845
rtoes -51.1269
lfemur -69.2972 31.8141 -25.0867
ltibia 107.317
lfoot -5.71103 24.9784
ltoes 49.2297
53
root -27.6325 12.7647 11.5338 192.412 52.5531 186.457
lowerback 29.6554 1.6466 11.5243
upperback 12.1399 7.49721 3.51549
thorax -1.54317 4.84328 -4.83206
lowerneck -13.3752 -0.758987 -6.11996
upperneck -17.2747 1.66018 1.41931
head -3.46514 1.99991 1.49127
rclavicle 8.90555e-014 2.8625e-014
rhumerus 30.8825 -27.4523 -97.454
rradius 17.6487
rwrist 41.2864
rhand -35.7994 17.2794
rfingers 7.12502
rthumb -8.91625 -12.5122
lclavicle 8.90555e-014 2.8625e-014
lhumerus -57.0602 -8.4087 78.8144
lradius 26.2517
lwrist -14.2135
lhand 50.6592 201.486
lfingers 7.12502
lthumb 70.3771 -153.006
rfemur -14.3822 -26.4595 -8.06161
rtibia 58.8899
rfoot -23.1531 -14.3877
rtoes -50.5745
lfemur -71.8984 31.3364 -26.5493
ltibia 106.466
lfoot -5.81468 25.2639
ltoes 48.1593
54
root -27.4506 12.7823 11.3463 193.844 51.3052 188.025
lowerback 29.5014 1.99665 11.7573
upperback 12.117 8.00765 3.49574
thorax -1.38218 5.1195 -5.09381
lowerneck -13.304 -1.26956 -5.58055
upperneck -17.7492 1.01862 1.82377
head -3.61845 1.6803 1.525
rclavicle 1.06549e-013 -2.8625e-014
rhumerus 31.6584 -32.9658 -100.064
rradius 19.0874
rwrist 31.9079
rhand -34.8632 21.5782
rfingers 7.12502
rthumb -8.01271 -8.24995
lclavicle 1.06549e-013 -2.8625e-014
lhumerus -59.6502 -12.0998 81.7112
lradius 27.6077
lwrist -8.66107
lhand 57.3309 204.986
lfingers 7.12502
lthumb 73.8133 -131.632
rfemur -11.5464 -25.9037 -7.0938
rtibia 56.2855
rfoot -22.1362 -15.7691
rtoes -51.6593
lfemur -74.5799 30.8261 -27.897
ltibia 105.525
lfoot -5.69023 25.3279
ltoes 46.5944
55
root -27.2571 12.8111 11.1442 195.164 49.9969 189.355
lowerback 29.0789 2.45193 11.2752
upperback 12.1549 8.44903 3.87578
thorax -1.22324 5.3259 -4.48464
lowerneck -13.1852 -1.66507 -6.14931
upperneck -18.0539 0.67787 2.64644
head -3.74864 1.55555 1.90499
rclavicle 3.18055e-015 -9.22361e-014
rhumerus 29.8365 -34.2056 -98.6722
rradius 22.2499
rwrist 19.0844
rhand -33.7597 24.6753
rfingers 7.12502
rthumb -6.94759 -5.19073
lclavicle 3.18055e-015 -9.22361e-014
lhumerus -62.0781 -13.4884 83.8352
lradius 28.4526
lwrist -5.40141
lhand 64.1252 209.778
lfingers 7.12502
lthumb 74.9643 -102.651
rfemur -8.625 -25.3313 -6.11867
rtibia 53.3796
rfoot -20.537 -17.2129
rtoes -52.6875
lfemur -76.9499 30.2387 -29.3309
ltibia 104.405
lfoot -5.81084 25.5152
ltoes 45.2252
56
root -27.0539 12.8207 10.9331 196.388 48.6803 190.212
lowerback 28.6442 2.59542 11.2832
upperback 11.8452 8.49437 3.30279
thorax -1.26705 5.327 -5.10175
lowerneck -12.9297 -1.89334 -6.09496
upperneck -18.3964 0.571783 4.13109
head -3.92604 1.48654 2.41456
rclavicle 1.04958e-013 -1.11319e-013
rhumerus 26.4317 -34.0639 -97.0294
rradius 26.2362
rwrist 7.07698
rhand -32.4289 27.5416
rfingers 7.12502
rthumb -5.66287 -2.36269
lclavicle 1.04958e-013 -1.11319e-013
lhumerus -64.79 -14.8307 85.0708
lradius 29.4575
lwrist -1.20426
lhand 70.2493 217.23
lfingers 7.12502
lthumb 73.5387 73.9156
rfemur -5.91212 -24.9424 -5.37958
rtibia 50.4105
rfoot -17.572 -19.2103
rtoes -54.0059
lfemur -79.4325 29.4947 -31.1875
ltibia 103.348
lfoot -5.81662 25.6402
ltoes 45.0825
57
root -26.8484 12.8448 10.7122 197.27 47.076 190.819
lowerback 27.3176 3.06797 9.75408
upperback 12.3254 8.64959 4.21026
thorax -0.497801 5.40885 -3.15241
lowerneck -12.2752 -2.13327 -7.19789
upperneck -19.7216 0.500568 4.69779
head -3.97717 1.54214 2.61046
rclavicle -3.18055e-015 -8.5875e-014
rhumerus 23.1876 -30.8569 -91.9881
rradius 29.2743
rwrist -3.50341
rhand -32.0004 29.2228
rfingers 7.12502
rthumb -5.24912 -0.692141
lclavicle -3.18055e-015 -8.5875e-014
lhumerus -66.3755 -13.7888 87.8669
lradius 30.0058
lwrist 2.89787
lhand 73.9707 229.695
lfingers 7.12502
lthumb 71.7229 51.0325
rfemur -2.71847 -24.1958 -4.68696
rtibia 47.1147
rfoot -14.0883 -20.5263
rtoes -54.6311
lfemur -81.2818 28.6269 -33.1762
ltibia 102.083
lfoot -4.52067 25.4373
ltoes 47.4931
